<?xml version="1.0" encoding="UTF-8" standalone="no"?>
<!-- Created with Inkscape (http://www.inkscape.org/) -->

<svg
   xmlns:dc="http://purl.org/dc/elements/1.1/"
   xmlns:cc="http://creativecommons.org/ns#"
   xmlns:rdf="http://www.w3.org/1999/02/22-rdf-syntax-ns#"
   xmlns:svg="http://www.w3.org/2000/svg"
   xmlns="http://www.w3.org/2000/svg"
   xmlns:sodipodi="http://sodipodi.sourceforge.net/DTD/sodipodi-0.dtd"
   xmlns:inkscape="http://www.inkscape.org/namespaces/inkscape"
   width="210mm"
   height="297mm"
   viewBox="0 0 210 297"
   version="1.1"
   id="svg8"
   inkscape:version="0.92.3 (2405546, 2018-03-11)"
   sodipodi:docname="Zeichnung.svg">
  <defs
     id="defs2" />
  <sodipodi:namedview
     id="base"
     pagecolor="#ffffff"
     bordercolor="#666666"
     borderopacity="1.0"
     inkscape:pageopacity="0.0"
     inkscape:pageshadow="2"
     inkscape:zoom="1.4"
     inkscape:cx="326.39402"
     inkscape:cy="931.09637"
     inkscape:document-units="mm"
     inkscape:current-layer="layer1"
     showgrid="false"
     inkscape:window-width="1920"
     inkscape:window-height="1012"
     inkscape:window-x="0"
     inkscape:window-y="32"
     inkscape:window-maximized="1" />
  <metadata
     id="metadata5">
    <rdf:RDF>
      <cc:Work
         rdf:about="">
        <dc:format>image/svg+xml</dc:format>
        <dc:type
           rdf:resource="http://purl.org/dc/dcmitype/StillImage" />
        <dc:title></dc:title>
      </cc:Work>
    </rdf:RDF>
  </metadata>
  <g
     inkscape:label="Ebene 1"
     inkscape:groupmode="layer"
     id="layer1">
    <path
       style="fill:#000000;stroke-width:0.19830315"
       d="m 42.027878,110.27312 c -1.7168,-0.39409 -2.22448,-1.07792 -2.8778,-3.87635 -0.59329,-2.54126 -0.50037,-7.58922 0.16249,-8.8278 0.12708,-0.23745 0.2131,-0.50227 0.19115,-0.58848 -0.0945,-0.37112 0.28442,-1.83388 0.44873,-1.73233 0.0994,0.0614 0.18073,-0.0211 0.18073,-0.18329 0,-0.42883 0.55851,-0.91976 0.8981,-0.78944 0.33874,0.12998 0.3857,0.68942 0.0832,0.99187 -0.20469,0.2047 -0.5093,1.17602 -1.10995,3.53946 -0.45193,1.77826 -0.26474,6.9276 0.30613,8.42082 0.55182,1.4434 0.92653,1.77684 2.1611,1.92305 0.89735,0.10628 1.13115,0.0545 1.82411,-0.4041 0.43717,-0.2893 0.79485,-0.64766 0.79485,-0.79635 0,-0.1487 0.12273,-0.37222 0.27273,-0.49672 0.25974,-0.21556 0.58782,-1.20635 0.8276,-2.4993 0.16548,-0.89232 0.18793,-0.97256 0.34034,-1.21625 0.0773,-0.1236 0.2923,-1.22552 0.47779,-2.44871 0.28248,-1.8629 0.30263,-2.57428 0.12409,-4.38138 -0.22978,-2.32575 -0.63902,-3.41485 -1.64419,-4.37564 -1.26242,-1.20671 -3.70653,-0.82105 -4.4673,0.70491 -0.1125,0.22565 -0.35847,0.43992 -0.54659,0.47615 -0.44921,0.0865 -0.46463,-0.84638 -0.0284,-1.72073 0.45576,-0.9136 1.32582,-1.30695 2.85924,-1.29267 1.41293,0.0131 2.80865,0.58494 3.19641,1.30947 0.12855,0.24021 0.28295,0.32372 0.39372,0.21295 0.19045,-0.19046 0.170662,-1.68493 -0.110138,-2.60139 -0.21214,-0.69235 -0.0708,-0.98745 0.47284,-0.98745 0.42803,0 0.47268,0.10229 0.5842,1.33855 0.0664,0.7362 0.02218,1.215129 0.132692,1.814999 0.11051,0.59987 0.189096,1.358231 0.290126,3.648631 0.10102,2.2904 0.2325,5.19059 0.29217,6.44486 0.0597,1.25427 0.0231,2.77129 -0.0812,3.37115 -0.10431,0.59987 -0.30192,1.78186 -0.43913,2.62665 -0.18909,1.16423 -0.3355,1.56329 -0.60493,1.6488 -0.19551,0.062 -0.44437,0.0579 -0.55303,-0.009 -0.21835,-0.13495 -0.16594,-0.60009 0.49188,-4.36532 0.0572,-0.3272 -0.022,-0.19334 -0.17594,0.29746 -0.15393,0.4908 -0.33574,1.20469 -0.40403,1.58642 -0.0683,0.38173 -0.43313,1.1151 -0.81074,1.62969 -1.19809,1.63268 -2.15206,2.02051 -3.95306,1.60709 z m 89.397082,-1.52627 c -1.10088,-0.35858 -2.39379,-1.42799 -2.6417,-2.18504 -0.60954,-1.86141 -0.55018,-4.5472 0.16045,-7.25929 0.41328,-1.57727 1.5613,-3.30018 2.32706,-3.49237 0.2925,-0.0734 0.47845,-0.26431 0.47845,-0.49117 0,-0.23558 0.30774,-0.53117 0.84279,-0.80953 0.70501,-0.36678 1.17854,-0.44037 2.89663,-0.45021 l 2.05384,-0.0118 0.57368,0.68657 c 0.31552,0.37761 0.57716,0.86842 0.58143,1.09067 0.0131,0.67995 0.53128,-0.871549 0.7935,-2.07469 0.19817,-0.909295 0.33747,-1.848519 0.93706,-1.248929 0.2286,0.2286 0.30309,0.51143 0.22531,0.85553 -0.67617,2.99138 -1.02313,7.212509 -0.93698,9.614499 l 0.064,1.78473 h -0.49365 c -0.45773,0 -0.5099,-0.10102 -0.71684,-1.38813 -0.12276,-0.76346 -0.23525,-1.14798 -0.24999,-0.85449 -0.0147,0.2935 -0.11603,0.58878 -0.2251,0.65619 -0.10906,0.0674 -0.1983,0.2904 -0.1983,0.49555 0,0.44669 -0.90763,2.40198 -1.56496,3.37136 -1.06989,1.5778 -3.11998,2.29247 -4.9067,1.71051 z m 3.07025,-1.81317 c 0.91686,-0.60675 1.94169,-2.52088 2.82022,-5.26746 0.76532,-2.39267 0.89215,-3.65943 0.50107,-5.00469 -0.28508,-0.98064 -0.39517,-1.12199 -1.03949,-1.33463 -0.45938,-0.15161 -1.18834,-0.18992 -2.01073,-0.10566 -1.58574,0.16247 -2.0876,0.4005 -1.92494,0.91301 0.19339,0.6093 -0.2242,1.16083 -0.86512,1.1426 -0.75252,-0.0214 -0.9032,0.0922 -1.47215,1.11021 -1.03083,1.84437 -1.38838,5.99334 -0.66557,7.72327 0.62667,1.49982 3.0003,1.9195 4.65671,0.82335 z m 4.13178,-5.68531 c -0.0633,-0.15819 -0.11029,-0.1112 -0.11981,0.11981 -0.009,0.20904 0.0383,0.32617 0.10416,0.26027 0.0659,-0.0659 0.0729,-0.23693 0.0156,-0.38008 z M 26.702598,108.5798 c -0.11209,-0.13997 -0.25652,-0.43296 -0.32097,-0.65109 -0.12057,-0.40813 -0.52204,-5.26853 -0.63882,-7.73383 -0.22758,-4.80477 -0.30129,-5.87319 -0.47885,-6.94061 -0.28685,-1.72448 -0.27905,-1.6915 -0.6654,-2.81497 -0.40345,-1.17317 -1.76022,-2.63837 -2.44313,-2.63837 -0.2376,0 -0.56066,-0.0494 -0.71791,-0.10971 -0.15725,-0.0603 -0.54497,0.10827 -0.8616,0.37469 -0.50092,0.4215 -0.74121,0.95445 -1.17695,2.61042 -0.4273,1.62387 -0.88674,5.10827 -0.80559,6.10958 0.0547,0.6752 0.19599,3.22484 0.31393,5.66586 0.11794,2.44102 0.26286,4.51656 0.32204,4.61232 0.19106,0.30914 -0.13299,0.96379 -0.4767,0.96302 -1.11638,-0.002 -1.76524,-6.16485 -1.36049,-12.92084 0.0827,-1.38087 0.193,-2.71941 0.24504,-2.97455 0.052,-0.25513 0.17415,-1.6976 0.27136,-3.20548 0.0972,-1.50788 0.2072,-2.77098 0.24443,-2.80689 0.0787,-0.0759 1.09847,-0.1548 1.60454,-0.12416 0.21406,0.013 0.34703,0.18112 0.34703,0.43884 0,0.3238 0.0781,0.38351 0.34703,0.26536 0.9136,-0.40137 1.78134,-0.32502 2.65185,0.23334 0.47742,0.30622 0.95727,0.53016 1.06634,0.49765 0.10906,-0.0325 0.1334,0.006 0.0541,0.0851 -0.0793,0.0793 0.0992,0.4235 0.3966,0.76485 0.29745,0.34135 0.702,0.84162 0.899,1.11171 0.21999,0.3016 0.31803,0.35718 0.2541,0.14404 -0.0621,-0.20715 8e-4,-0.34703 0.15632,-0.34703 0.14321,0 0.51709,-0.22058 0.83085,-0.49019 0.81556,-0.70079 2.01372,-0.83763 2.9831,-0.34069 0.78173,0.40075 2.15454,1.63014 2.60342,2.33143 0.98981,1.54642 0.96056,1.39244 1.12986,5.94673 0.0687,1.84813 0.20892,4.56494 0.31159,6.03734 0.41764,5.98889 0.41417,5.75603 0.0874,5.88141 -0.16723,0.0642 -0.3442,0.0765 -0.39326,0.0275 -0.17373,-0.17373 -0.46596,-2.09015 -0.51028,-3.34627 -0.0247,-0.70051 -0.11034,-1.58598 -0.19029,-1.96772 -0.0799,-0.38173 -0.19032,-2.83573 -0.24527,-5.45334 -0.0549,-2.6176 -0.18775,-4.98237 -0.29511,-5.25504 -0.10736,-0.27266 -0.42819,-0.74575 -0.71295,-1.0513 -0.28475,-0.30556 -0.51774,-0.61789 -0.51774,-0.69407 -10e-6,-0.18462 -1.18603,-1.11364 -1.68558,-1.32031 -0.57575,-0.2382 -1.53252,-0.11935 -1.93492,0.24035 -0.46735,0.41776 -0.95374,1.40212 -1.05185,2.12872 -0.044,0.32579 0.0515,1.70896 0.2122,3.0737 0.1607,1.36474 0.2953,3.68603 0.2991,5.15844 0.004,1.4724 0.10807,3.56946 0.23171,4.66013 0.12363,1.09066 0.23288,2.42118 0.24276,2.95671 0.0181,0.98182 -0.241,1.34306 -0.62206,0.86723 z m 35.35134,-0.10396 c -0.21358,-0.053 -0.57766,-0.22041 -0.80904,-0.37202 -0.23139,-0.15161 -0.49481,-0.20842 -0.58539,-0.12623 -0.0906,0.0822 -0.10293,0.0418 -0.0274,-0.0897 0.0755,-0.13153 5.9e-4,-0.56606 -0.16628,-0.96561 -0.16695,-0.39955 -0.44378,-1.58586 -0.61518,-2.63625 -0.17141,-1.05038 -0.44001,-2.24821 -0.5969,-2.66183 -0.15689,-0.41363 -0.37868,-1.61832 -0.49287,-2.6771 -0.23652,-2.19316 -0.0759,-3.76147 0.72064,-7.03806 0.1604,-0.6598 1.97387,-2.60351 2.26257,-2.42508 0.3424,0.21162 0.22562,0.83682 -0.26619,1.42506 -2.16033,2.58391 -2.2986,6.50397 -0.49407,14.0076 0.45616,1.89682 0.72634,2.31806 1.48682,2.31806 0.53016,0 0.90467,-0.28263 1.11679,-0.84279 0.22324,-0.58958 0.73876,-0.41879 0.73876,0.24475 0,1.04979 -1.2796,2.08556 -2.27222,1.83923 z m 82.761182,-1.19162 c -0.14952,-0.38717 -0.14383,-1.66684 0.0196,-4.41224 0.12663,-2.1268 0.26689,-4.62543 0.31169,-5.5525 0.20988,-4.34254 0.43063,-5.62474 1.13162,-6.57289 0.78674,-1.06413 1.47682,-0.46845 0.77425,0.66834 -0.22079,0.35724 -0.39971,0.69414 -0.39761,0.74867 0.002,0.0545 -0.0451,0.41148 -0.10489,0.79321 -0.0598,0.38174 -0.16094,1.14025 -0.22477,1.68558 -0.15407,1.31628 0.21974,0.78627 0.40731,-0.57751 0.0751,-0.5462 0.20338,-1.1305 0.28503,-1.29846 0.0816,-0.16795 0.36072,-0.97463 0.62015,-1.79263 0.36343,-1.14591 0.66011,-1.67176 1.29259,-2.2911 0.89498,-0.87637 2.14253,-1.39881 2.89144,-1.21084 1.36094,0.34157 2.58678,1.83024 2.84282,3.45236 0.0732,0.46353 0.18983,0.83898 0.25924,0.83434 0.0694,-0.005 0.47537,-0.46097 0.90212,-1.01405 0.42674,-0.55309 1.03586,-1.1637 1.35359,-1.35692 0.52634,-0.32009 0.67316,-0.32639 1.65178,-0.0708 1.59553,0.41665 2.38005,0.95917 2.87977,1.99144 0.40335,0.83322 0.4278,1.09129 0.31349,3.30877 -0.0682,1.32279 -0.22432,3.14359 -0.34697,4.04624 -0.12264,0.90266 -0.19162,2.3964 -0.15327,3.31943 0.0545,1.31282 0.009,1.70172 -0.21133,1.78606 -0.33119,0.12704 -0.66072,-0.15685 -0.7508,-0.64683 -0.15416,-0.8385 -0.0411,-4.07331 0.20285,-5.80238 0.14617,-1.03613 0.28663,-2.65213 0.31215,-3.59112 0.0453,-1.66795 0.0324,-1.72125 -0.56268,-2.31631 -0.42669,-0.42669 -0.93993,-0.67776 -1.71396,-0.83845 l -1.10488,-0.22937 -0.72792,0.84604 c -1.76678,2.05349 -2.09332,3.23049 -2.63577,9.50037 -0.12738,1.4724 -0.29584,2.74976 -0.37435,2.83857 -0.25013,0.28294 -0.79083,-0.46392 -0.80911,-1.11758 -0.0363,-1.30045 0.0453,-2.65331 0.23555,-3.90233 0.10798,-0.70894 0.22998,-1.51206 0.27111,-1.78472 0.28375,-1.88098 0.29485,-4.54556 0.0231,-5.53491 -0.16213,-0.5902 -0.3725,-1.12562 -0.46749,-1.18982 -0.095,-0.0642 -0.23186,-0.27693 -0.30417,-0.47272 -0.17194,-0.46553 -1.43481,-0.98671 -1.98591,-0.81956 -1.32635,0.40228 -2.42079,1.89385 -2.64453,3.60413 -0.0678,0.51841 -0.24973,1.19339 -0.40423,1.49996 -0.1545,0.30656 -0.40746,1.51125 -0.56213,2.67709 -0.15467,1.16583 -0.40936,2.61051 -0.56597,3.21038 -0.15661,0.59986 -0.32838,1.35837 -0.38172,1.68557 -0.0533,0.3272 -0.19989,1.17495 -0.32566,1.88388 -0.12577,0.70894 -0.25681,1.95825 -0.29119,2.77625 -0.0786,1.87055 -0.0586,1.78473 -0.41699,1.78473 -0.1663,0 -0.39713,-0.2454 -0.51296,-0.54534 z m 28.62421,-0.86521 c -1.65074,-0.81711 -2.19512,-2.15916 -2.36805,-5.83801 -0.15399,-3.27565 0.26214,-5.46587 1.60972,-8.47263 0.28247,-0.63024 0.51358,-1.25935 0.51358,-1.39802 0,-0.4389 1.77408,-2.71019 2.13403,-2.73213 0.98405,-0.06 1.56905,0.0846 1.89566,0.46847 0.31521,0.37049 0.61614,0.43419 2.36894,0.50149 2.27369,0.0873 3.53467,0.52934 4.01112,1.40614 0.27016,0.49717 0.28309,0.50065 0.29068,0.0783 0.009,-0.51305 0.15249,-0.836209 0.68456,-2.129919 0.20185,-0.4908 0.46795,-1.22576 0.59131,-1.63324 0.26381,-0.87133 0.46255,-1.04215 0.77477,-0.66594 0.17428,0.20999 0.13376,0.54691 -0.17265,1.43551 -0.45459,1.535691 -0.72118,2.373539 -0.78267,3.336459 -0.0313,0.4908 -0.15714,1.78473 -0.27957,2.87539 -0.12242,1.09067 -0.3095,2.8754 -0.41572,3.96606 -0.28725,2.94923 -0.38372,3.40128 -0.80783,3.78509 -0.83024,0.75135 -0.82544,0.44359 0.11779,-7.55284 0.0758,-0.64237 0.0607,-0.69346 -0.079,-0.26866 -0.0949,0.2885 -0.57729,1.35934 -1.07195,2.37963 -0.49467,1.0203 -1.17155,2.43512 -1.50419,3.14407 -0.33263,0.70893 -0.71594,1.46744 -0.85179,1.68557 -0.13585,0.21814 -0.54002,0.86373 -0.89816,1.43465 -0.35814,0.57092 -0.65116,1.08452 -0.65116,1.14134 0,0.0568 -0.50743,0.72442 -1.12762,1.48357 -0.74957,0.91753 -1.38252,1.48228 -1.88789,1.68449 -0.9776,0.39116 -1.08343,0.38535 -2.09392,-0.11483 z m 2.46546,-1.70091 c 1.36805,-1.12101 2.53817,-2.92652 4.74215,-7.31721 3.166,-6.30716 3.03675,-7.15114 -1.11429,-7.27645 -1.44266,-0.0435 -1.69745,-0.10449 -1.87224,-0.44778 -0.12101,-0.23768 -0.35024,-0.36818 -0.57041,-0.32474 -0.20245,0.04 -0.4657,-0.025 -0.58499,-0.14427 -0.40247,-0.40246 -0.90771,-0.22079 -1.46491,0.52674 -0.30486,0.409 -0.60758,0.78825 -0.6727,0.84279 -0.22744,0.19045 -1.34129,3.15178 -1.76122,4.68246 -0.31083,1.13296 -0.44012,2.25773 -0.48631,4.23076 -0.0749,3.20037 0.19578,4.55449 1.07929,5.39882 0.82937,0.79259 1.58812,0.7446 2.70563,-0.17112 z m -106.663212,1.10877 c -0.60811,-0.34031 -0.71643,-2.10392 -0.85939,-13.99165 -0.11473,-9.54033 -0.0872,-9.96218 0.61278,-9.38126 0.24069,0.19975 0.28877,1.19824 0.28877,5.9969 0,5.47698 0.0169,5.74191 0.34806,5.44226 0.28851,-0.26111 0.56837,-0.28536 1.636,-0.1418 1.8757,0.25222 1.94174,0.2735 4.04403,1.30327 2.85909,1.40047 2.8104,1.29306 2.73435,6.03266 -0.0341,2.1268 -0.12411,3.93012 -0.19996,4.00738 -0.0759,0.0773 -0.27102,0.0582 -0.43371,-0.0425 -0.24258,-0.15003 -0.30085,-0.82178 -0.3239,-3.73396 -0.0155,-1.95306 -0.087,-3.73643 -0.15887,-3.96304 -0.0719,-0.2266 -0.32699,-0.47348 -0.56681,-0.54862 -0.23982,-0.0751 -0.88222,-0.33799 -1.42755,-0.58412 -2.43604,-1.09945 -4.2294,-1.48667 -4.70104,-1.01504 -0.45692,0.45693 -0.58901,2.35186 -0.46829,6.71802 0.0593,2.14535 0.0401,3.94252 -0.0427,3.99371 -0.0828,0.0512 -0.2996,0.01 -0.48173,-0.0923 z m 44.864832,-0.32768 c -0.54954,-0.27699 -0.72926,-0.51934 -0.89352,-1.20488 -0.19366,-0.80825 -0.50076,-0.95333 -0.50076,-0.23656 0,0.17955 -0.2619,0.57737 -0.582,0.88405 -0.46015,0.44085 -0.69352,0.5296 -1.11463,0.42391 -0.78435,-0.19686 -1.01072,-0.5126 -1.27288,-1.77539 -0.38407,-1.8501 0.0827,-8.92222 0.63316,-9.59241 0.11197,-0.13634 0.39343,-0.24925 0.62548,-0.25092 0.23205,-0.002 0.54845,-0.0831 0.70311,-0.18103 0.18218,-0.11531 0.44408,-0.0713 0.74364,0.12499 0.45239,0.29642 0.46265,0.28851 0.47295,-0.3643 0.0155,-0.97906 0.47053,-6.024533 0.58458,-6.553413 0.0731,-0.33906 0.2138,-0.44274 0.53817,-0.39661 0.48998,0.0697 0.18666,2.850293 -0.0208,6.580183 -0.188,3.38024 -0.20226,8.49129 -0.0268,9.58391 0.0846,0.52674 0.26898,1.00189 0.40971,1.05589 0.14072,0.054 0.49806,0.44768 0.79408,0.87483 0.44303,0.6393 0.4943,0.82956 0.28988,1.07586 -0.31874,0.38406 -0.54136,0.37631 -1.38343,-0.0481 z m -2.39734,-2.28018 c 0.69866,-1.52113 1.00874,-3.63051 0.80961,-5.50754 -0.27586,-2.60023 -0.72321,-3.4795 -1.37233,-2.69735 -0.29206,0.35191 -0.79819,6.67923 -0.61027,7.62912 0.328,1.65791 0.61194,1.79729 1.17299,0.57577 z m 7.47532,1.80867 c -0.33766,-0.19864 -0.35762,-0.3974 -0.23359,-2.32669 0.0746,-1.16023 0.21985,-2.37721 0.32281,-2.70441 0.10296,-0.3272 0.40886,-1.27993 0.67977,-2.11716 0.27092,-0.83722 0.49257,-1.78559 0.49257,-2.10747 0,-0.81756 0.45448,-1.16482 1.0401,-0.79472 0.24595,0.15543 0.82296,0.39161 1.28224,0.52486 1.08031,0.31341 2.63524,1.8645 2.63524,2.62873 0,0.88567 -0.49144,0.82129 -1.52087,-0.19925 -0.52686,-0.5223 -1.19886,-1.00811 -1.49334,-1.0796 -0.4669,-0.11334 -0.57177,-0.0473 -0.81953,0.5158 -0.77224,1.7552 -1.26325,4.02011 -1.38673,6.39657 -0.076,1.46311 -0.26111,1.69725 -0.99867,1.26334 z m -30.399122,-0.60984 c -0.22818,-0.25035 -0.51973,-0.65848 -0.6479,-0.90693 -0.12926,-0.25058 -0.33055,-0.39147 -0.45203,-0.31639 -0.12819,0.0792 -0.16314,0.045 -0.0843,-0.0826 0.12152,-0.19661 -0.96648,-2.22294 -1.19357,-2.22294 -0.052,0 0.233978,3.36631 0.268078,3.60157 0.085,0.58582 -0.35349,0.6876 -0.64176,0.14897 -0.37442,-0.69961 -1.069608,-8.91283 -0.972468,-11.75513 0.14557,-4.25963 0.27448,-6.54018 0.39944,-7.06646 0.0647,-0.27267 0.18909,-0.84 0.27633,-1.26074 0.21003,-1.01295 0.87216,-1.69399 1.34706,-1.38554 0.3446,0.22382 0.39075,1.03988 0.0707,1.24949 -0.47262,0.30948 -0.94544,3.67489 -1.06294,7.56574 l -0.0515,1.70713 0.54902,-1.01307 c 0.30196,-0.55719 0.73851,-1.41463 0.9701,-1.90543 0.2316,-0.4908 0.47752,-0.93698 0.5465,-0.99152 0.069,-0.0545 0.34366,-0.51828 0.61039,-1.03054 0.48609,-0.93355 1.03922,-1.27265 1.67681,-1.02798 0.38431,0.14747 0.24398,0.77011 -0.3104,1.37724 -0.20559,0.22517 -0.37381,0.46609 -0.37381,0.5354 0,0.0693 -0.25573,0.50973 -0.5683,0.97873 -0.31256,0.469 -0.99391,1.65586 -1.5141,2.63746 -0.5202,0.9816 -1.06704,2.00782 -1.21521,2.28048 -0.31247,0.57501 -0.3502,0.99152 -0.0898,0.99152 0.10011,0 0.1778,0.46902 0.17265,1.04226 -0.007,0.79843 0.15732,1.39351 0.70312,2.54368 0.39186,0.82577 0.92008,1.71761 1.17383,1.98186 0.25374,0.26425 0.62371,0.73762 0.82215,1.05194 0.19844,0.31432 0.41796,0.484 0.48782,0.37708 0.13898,-0.21271 0.938,-0.20368 1.15473,0.0131 0.23577,0.23577 -0.64945,1.21719 -1.15301,1.27832 -0.30517,0.037 -0.63526,-0.10882 -0.89755,-0.39661 z m 9.64903,0.0988 c -0.45594,-0.16667 -1.19923,-0.89447 -1.47715,-1.44638 -0.59472,-1.181 -1.01019,-3.5947 -0.97281,-5.65165 0.0316,-1.7404 0.54917,-3.23508 1.51639,-4.37943 0.3479,-0.41161 0.48047,-0.75133 0.40533,-1.03868 -0.12973,-0.49611 0.41905,-0.81865 0.77954,-0.45816 0.12354,0.12355 0.34917,0.22463 0.50139,0.22463 0.15221,0 0.53532,0.18412 0.851352,0.40915 0.68022,0.359192 0.8411,0.56745 1.09572,0.74597 0.32241,-0.0556 0.4585,0.884646 0.54398,-0.566844 0.0824,-1.39875 0.15786,-1.69476 0.44618,-1.7497 0.31299,-0.0596 0.34748,0.14445 0.35153,2.08019 0.007,3.15249 0.27036,5.772934 0.64688,6.973314 0.23687,0.75515 0.26905,1.11111 0.11444,1.26573 -0.34038,0.34038 -0.78729,0.0456 -0.93239,-0.61509 -0.20585,-0.93722 -0.43156,-0.89254 -0.6846,0.13552 -0.80484,3.26994 -1.822052,4.56994 -3.185762,4.07143 z m 1.668212,-2.63946 c 0.29517,-0.54232 0.61429,-1.41042 0.70916,-1.92909 0.0949,-0.51867 0.26956,-1.32709 0.38821,-1.79647 0.11866,-0.46938 0.16606,-1.40636 0.10534,-2.08218 -0.24989,-2.78134 -2.278512,-3.82453 -3.353532,-1.72452 -0.13958,0.27266 -0.40717,0.78865 -0.59464,1.14663 -0.52589,1.00423 -0.59774,2.52564 -0.21321,4.51459 0.35846,1.85409 0.66049,2.5412 1.36314,3.10109 0.52764,0.42044 0.81982,0.19519 1.595532,-1.23005 z"
       id="path21"
       inkscape:connector-curvature="0"
       sodipodi:nodetypes="cccccsccscccsccccsccccccccscsccccccccccccccscscccccsssccscccscccccccscccccccccccccccsccccscccccccscccccccsccccccccccccccccscccccccccccccccssscsccccccccccccccccccccccccccccccccccccccccccccccccscccccsccssccccccccscccscsscsccccccccccccsccscscccccccccccccccccsccccccccccscccccccccccccscsccscccccccccscccccccccccccccscccscscscccccccccccsccccccccsccccccccccc" />
  </g>
</svg>
